<?xml version="1.0" encoding="utf-8"?>
<!-- Generator: Adobe Illustrator 23.0.1, SVG Export Plug-In . SVG Version: 6.00 Build 0)  -->
<svg version="1.1" id="Layer_1" xmlns="http://www.w3.org/2000/svg" xmlns:xlink="http://www.w3.org/1999/xlink" x="0px" y="0px"
	 viewBox="0 0 1000 1000" style="enable-background:new 0 0 1000 1000;" xml:space="preserve">
<style type="text/css">
	.st0{fill:#F2F5FF;}
	.st1{fill:#0045FF;}
</style>
<path class="st0" d="M322.7,663.2l5.9,269L487.8,829c0,0,6.1-11.2,23.4-2.1c17.3,9.2,163.7,105.2,163.7,105.2l-0.7-272.4"/>
<g>
	<g transform="translate(0.000000,511.000000) scale(0.100000,-0.100000)">
		<circle class="st0" cx="5000" cy="1440" r="3050"/>
		<path class="st1" d="M4654.3,4991.8c-424.7-44-790-147.4-1177.2-330.1c-1001.2-475.3-1718.6-1395.1-1962.8-2515.1
			c-41.8-191.4-48.4-288.3-48.4-706.3s6.6-512.7,48.4-699.7c169.4-761.4,517.1-1381.9,1065-1894.6l193.6-184.8v-1610.7
			c0-1425.9,4.4-1619.5,35.2-1683.3c59.4-127.6,187-180.4,319.1-134.2c41.8,15.4,475.3,281.7,961.6,591.9
			c486.3,310.3,893.4,565.5,906.6,565.5s431.3-261.9,933-580.9c541.3-347.7,939.6-587.5,983.6-596.3c101.2-17.6,217.9,44,266.3,143
			c37.4,70.4,39.6,198,39.6,1687.8v1608.5l270.6,272.9c671.1,671.1,1012.2,1458.9,1043,2405.1c17.6,569.9-50.6,955-266.3,1489.7
			c-426.9,1054-1412.7,1877-2528.3,2108C5345.2,5009.4,5008.6,5029.2,4654.3,4991.8z M5604.9,4410.9
			c928.6-206.8,1663.5-776.8,2083.9-1615.1c451.1-893.4,420.3-1982.6-77-2851.8c-437.9-763.6-1142.1-1276.3-2022.2-1469.9
			c-297.1-63.8-889-63.8-1188.3,2.2c-948.4,206.8-1687.8,781.2-2119,1645.9c-83.6,165-202.4,521.5-248.7,746
			c-55,272.9-57.2,867-2.2,1139.8c121,596.3,385.1,1106.8,794.4,1531.5c477.5,490.7,1012.2,776.8,1685.6,895.6
			C4733.5,4474.7,5389.3,4461.5,5604.9,4410.9z M3474.9-1770.2c202.4-103.4,554.5-222.2,825.2-281.7
			c191.4-41.8,288.3-48.4,695.3-48.4c407.1,0,503.9,6.6,695.4,48.4c270.6,59.4,622.7,178.2,825.2,281.7
			c83.6,41.8,156.2,74.8,162.9,74.8c6.6,0,11-523.7,11-1166.3c0-640.3-4.4-1166.2-11-1166.2s-369.7,226.7-805.4,506.1
			c-831.8,530.3-869.2,547.9-994.6,481.9c-26.4-15.4-387.3-242.1-801-506.1c-413.7-266.3-759.2-481.9-765.8-481.9
			s-11,525.9-11,1166.2c0,642.5,4.4,1166.3,11,1166.3S3391.2-1728.4,3474.9-1770.2z"/>
		<path class="st1" d="M4856.8,4078.6c-48.4-26.4-132-176-409.3-730.5l-349.9-697.5L3353.8,2545c-508.3-72.6-768-118.8-812-145.2
			c-81.4-46.2-132-171.6-112.2-275.1c13.2-63.8,107.8-165,563.3-607.3c303.7-294.9,550.1-550.1,550.1-569.9s-55-363.1-123.2-763.6
			c-123.2-715.1-125.4-728.3-88-805.4c22-44,63.8-96.8,96.8-118.8c118.8-77,176-57.2,891.2,316.9l675.5,352.1l668.9-349.9
			c723.9-376.3,767.9-391.7,908.8-305.9c134.2,81.4,134.2,123.2-2.2,917.6C6502.6,580,6447.6,918.8,6447.6,943
			s202.4,235.4,530.3,554.5c519.3,503.9,591.9,585.3,591.9,679.9c0,85.8-70.4,200.2-140.8,233.2c-37.4,17.6-400.5,79.2-805.4,136.4
			l-737.2,103.4l-341.1,690.9c-367.5,745.9-387.3,772.4-550.1,772.4C4953.6,4111.6,4892,4096.2,4856.8,4078.6z M5250.6,2731.9
			c215.6-440.1,255.2-506.1,319.1-539.1c46.2-24.2,279.4-68.2,600.7-116.6c290.4-41.8,530.3-79.2,534.7-83.6
			c4.4-2.2-176-184.8-400.5-407.1c-319.1-314.7-407.1-413.7-418.1-470.9c-6.6-41.8,28.6-292.7,83.6-602.9
			c52.8-294.9,92.5-534.7,88-534.7c-4.4,0-228.8,116.6-497.3,257.5c-354.3,187-510.5,257.4-565.5,257.4s-211.2-70.4-567.7-259.6
			C4157,91.4,3932.6-23,3930.4-18.6c-4.4,4.4,37.4,248.6,90.2,545.7c55,312.5,88,565.5,81.4,602.9c-11,46.2-132,180.4-418.1,459.9
			c-222.2,217.9-402.7,398.3-398.3,402.7c6.6,6.6,1034.2,162.8,1071.6,162.8c11,0,52.8,28.6,94.6,66
			c52.8,46.2,138.6,195.8,303.7,539.1c125.4,259.7,233.2,473.1,239.8,470.9C5002,3231.4,5116.4,3007,5250.6,2731.9z"/>
	</g>
</g>
</svg>
